<svg width="31" height="34" viewBox="0 0 31 34" fill="none" xmlns="http://www.w3.org/2000/svg">
<path d="M1.68012 2.8077L15.375 0.0687256L29.0698 2.8077C29.8325 2.96022 30.375 3.56893 30.375 4.27198V19.2521C30.375 22.2612 28.704 25.0713 25.922 26.7405L15.375 33.0687L4.828 26.7405C2.04602 25.0713 0.375 22.2612 0.375 19.2521V4.27198C0.375 3.56893 0.91755 2.96022 1.68012 2.8077ZM3.70833 5.47524V19.2521C3.70833 21.2582 4.82233 23.1315 6.677 24.2444L15.375 29.4632L24.073 24.2444C25.9277 23.1315 27.0417 21.2582 27.0417 19.2521V5.47524L15.375 3.14191L3.70833 5.47524ZM15.375 15.0687C13.0738 15.0687 11.2083 13.3898 11.2083 11.3187C11.2083 9.24766 13.0738 7.56873 15.375 7.56873C17.6762 7.56873 19.5417 9.24766 19.5417 11.3187C19.5417 13.3898 17.6762 15.0687 15.375 15.0687ZM7.92077 22.5687C8.33532 19.1937 11.5145 16.5687 15.375 16.5687C19.2355 16.5687 22.4147 19.1937 22.8292 22.5687H7.92077Z" fill="black"/>
</svg>
