<svg width="48" height="52" viewBox="0 0 48 52" fill="none" xmlns="http://www.w3.org/2000/svg">
<path d="M40.1194 22.9254C41.0937 22.9254 42.0394 23.04 42.9851 23.1833V9.37075L21.4925 0L0 9.37075V23.4412C0 36.4513 9.17015 48.6304 21.4925 51.5821C23.0687 51.2096 24.5875 50.6651 26.0776 50.006C24.1003 47.1976 22.9254 43.7875 22.9254 40.1194C22.9254 30.634 30.634 22.9254 40.1194 22.9254Z" fill="#111111"/>
<path d="M36.5374 28.6567C30.2043 28.6567 25.0747 33.7863 25.0747 40.1194C25.0747 46.4525 30.2043 51.5821 36.5374 51.5821C42.8705 51.5821 48.0001 46.4525 48.0001 40.1194C48.0001 33.7863 42.8705 28.6567 36.5374 28.6567ZM36.5374 32.6114C38.3141 32.6114 39.7469 34.0728 39.7469 35.8209C39.7469 37.569 38.2855 39.0305 36.5374 39.0305C34.7893 39.0305 33.3278 37.569 33.3278 35.8209C33.3278 34.0728 34.7607 32.6114 36.5374 32.6114ZM36.5374 48C33.8723 48 31.5511 46.6818 30.1183 44.6472C30.2616 42.5839 34.4455 41.5522 36.5374 41.5522C38.6293 41.5522 42.8132 42.5839 42.9565 44.6472C41.5237 46.6818 39.2025 48 36.5374 48Z" fill="#111111"/>
</svg>
