<svg width="40" height="40" viewBox="0 0 40 40" fill="none" xmlns="http://www.w3.org/2000/svg">
<g clip-path="url(#clip0_3_26)">
<path d="M40 21.6667C40 11.5834 31.75 3.33337 21.6667 3.33337C11.5833 3.33337 3.33334 11.5834 3.33334 21.6667C3.33334 31.75 11.5833 40 21.6667 40C31.75 40 40 31.75 40 21.6667ZM10.1167 12.6834L30.65 33.2167C28.2667 35.2333 25.15 36.3333 21.6667 36.3333C13.6 36.3333 7.00001 29.7333 7.00001 21.6667C7.00001 18.1834 8.10001 15.0667 10.1167 12.6834ZM36.3333 21.6667C36.3333 25.15 35.2333 28.2667 33.2167 30.65L12.6833 10.1167C15.0667 8.10004 18.1833 7.00004 21.6667 7.00004C29.7333 7.00004 36.3333 13.6 36.3333 21.6667Z" fill="#E70404"/>
</g>
<defs>
<clipPath id="clip0_3_26">
<rect width="40" height="40" fill="white"/>
</clipPath>
</defs>
</svg>
