<svg width="40" height="40" viewBox="0 0 40 40" fill="none" xmlns="http://www.w3.org/2000/svg">
<g clip-path="url(#clip0_3_23)">
<path d="M27.65 12.6334L16.6667 23.6167L10.6833 17.65L8.33334 20L16.6667 28.3334L30 15L27.65 12.6334ZM20 3.33337C10.8 3.33337 3.33334 10.8 3.33334 20C3.33334 29.2 10.8 36.6667 20 36.6667C29.2 36.6667 36.6667 29.2 36.6667 20C36.6667 10.8 29.2 3.33337 20 3.33337ZM20 33.3334C12.6333 33.3334 6.66668 27.3667 6.66668 20C6.66668 12.6334 12.6333 6.66671 20 6.66671C27.3667 6.66671 33.3333 12.6334 33.3333 20C33.3333 27.3667 27.3667 33.3334 20 33.3334Z" fill="#00B91E"/>
</g>
<defs>
<clipPath id="clip0_3_23">
<rect width="40" height="40" fill="white"/>
</clipPath>
</defs>
</svg>
