<svg width="30" height="30" viewBox="0 0 30 30" fill="none" xmlns="http://www.w3.org/2000/svg">
<path d="M0 30C0 23.6881 5.11674 18.5714 11.4286 18.5714C17.7404 18.5714 22.8571 23.6881 22.8571 30H20C20 25.2661 16.1624 21.4286 11.4286 21.4286C6.6947 21.4286 2.85714 25.2661 2.85714 30H0ZM11.4286 17.1429C6.69286 17.1429 2.85714 13.3071 2.85714 8.57143C2.85714 3.83571 6.69286 0 11.4286 0C16.1643 0 20 3.83571 20 8.57143C20 13.3071 16.1643 17.1429 11.4286 17.1429ZM11.4286 14.2857C14.5857 14.2857 17.1429 11.7286 17.1429 8.57143C17.1429 5.41429 14.5857 2.85714 11.4286 2.85714C8.27143 2.85714 5.71429 5.41429 5.71429 8.57143C5.71429 11.7286 8.27143 14.2857 11.4286 14.2857ZM23.2624 19.5754C27.2349 21.3659 30 25.36 30 30H27.1429C27.1429 26.52 25.069 23.5244 22.0897 22.1816L23.2624 19.5754ZM22.2803 3.44744C25.1349 4.62433 27.1429 7.43373 27.1429 10.7143C27.1429 14.8146 24.006 18.1789 20 18.5394V15.6637C22.4239 15.3174 24.2857 13.2343 24.2857 10.7143C24.2857 8.74193 23.1451 7.03719 21.4871 6.22336L22.2803 3.44744Z" fill="black"/>
</svg>
