<svg width="30" height="30" viewBox="0 0 30 30" fill="none" xmlns="http://www.w3.org/2000/svg">
<path d="M13.6364 30C6.1052 30 0 23.2842 0 15C0 6.71572 6.1052 0 13.6364 0C18.0972 0 22.0578 2.35617 24.5457 5.99885L20.8512 5.99897C18.9282 4.13248 16.4025 3 13.6364 3C7.61144 3 2.72727 8.37258 2.72727 15C2.72727 21.6275 7.61144 27 13.6364 27C16.4032 27 18.9295 25.8669 20.8526 23.9997H24.5467C22.0589 27.6432 18.0978 30 13.6364 30ZM23.1818 21V16.5H12.2727V13.5H23.1818V9L30 15L23.1818 21Z" fill="black"/>
</svg>
