<svg width="50" height="50" viewBox="0 0 50 50" fill="none" xmlns="http://www.w3.org/2000/svg">
<path d="M24.9998 22.9166C30.7528 22.9166 35.4165 27.5804 35.4165 33.3333V45.8333H31.2498V33.3333C31.2498 30.0048 28.648 27.2839 25.3671 27.0939L24.9998 27.0833C21.6713 27.0833 18.9505 29.6852 18.7604 32.966L18.7498 33.3333V45.8333H14.5832V33.3333C14.5832 27.5804 19.2469 22.9166 24.9998 22.9166ZM11.4582 29.1666C12.0391 29.1666 12.6042 29.2345 13.1459 29.3629C12.7957 30.4041 12.5805 31.5041 12.5185 32.6443L12.4998 33.3333L12.5013 33.5116C12.2656 33.4283 12.0169 33.3723 11.7591 33.3477L11.4582 33.3333C9.8338 33.3333 8.4989 34.5727 8.34748 36.1573L8.33317 36.4583V45.8333H4.1665V36.4583C4.1665 32.4312 7.43109 29.1666 11.4582 29.1666ZM38.5415 29.1666C42.5686 29.1666 45.8332 32.4312 45.8332 36.4583V45.8333H41.6665V36.4583C41.6665 34.8339 40.4271 33.4991 38.8425 33.3477L38.5415 33.3333C38.1765 33.3333 37.8261 33.3958 37.5005 33.5108L37.4998 33.3333C37.4998 31.9464 37.274 30.6125 36.8571 29.3658C37.3955 29.2345 37.9605 29.1666 38.5415 29.1666ZM11.4582 16.6666C14.3347 16.6666 16.6665 18.9985 16.6665 21.875C16.6665 24.7514 14.3347 27.0833 11.4582 27.0833C8.58169 27.0833 6.24984 24.7514 6.24984 21.875C6.24984 18.9985 8.58169 16.6666 11.4582 16.6666ZM38.5415 16.6666C41.418 16.6666 43.7498 18.9985 43.7498 21.875C43.7498 24.7514 41.418 27.0833 38.5415 27.0833C35.665 27.0833 33.3332 24.7514 33.3332 21.875C33.3332 18.9985 35.665 16.6666 38.5415 16.6666ZM11.4582 20.8333C10.8829 20.8333 10.4165 21.2998 10.4165 21.875C10.4165 22.4502 10.8829 22.9166 11.4582 22.9166C12.0335 22.9166 12.4998 22.4502 12.4998 21.875C12.4998 21.2998 12.0335 20.8333 11.4582 20.8333ZM38.5415 20.8333C37.9663 20.8333 37.4998 21.2998 37.4998 21.875C37.4998 22.4502 37.9663 22.9166 38.5415 22.9166C39.1167 22.9166 39.5832 22.4502 39.5832 21.875C39.5832 21.2998 39.1167 20.8333 38.5415 20.8333ZM24.9998 4.16663C29.6021 4.16663 33.3332 7.89758 33.3332 12.5C33.3332 17.1023 29.6021 20.8333 24.9998 20.8333C20.3975 20.8333 16.6665 17.1023 16.6665 12.5C16.6665 7.89758 20.3975 4.16663 24.9998 4.16663ZM24.9998 8.33329C22.6986 8.33329 20.8332 10.1988 20.8332 12.5C20.8332 14.8011 22.6986 16.6666 24.9998 16.6666C27.3011 16.6666 29.1665 14.8011 29.1665 12.5C29.1665 10.1988 27.3011 8.33329 24.9998 8.33329Z" fill="white"/>
</svg>
