<svg width="50" height="50" viewBox="0 0 50 50" fill="none" xmlns="http://www.w3.org/2000/svg">
<path d="M19.8959 23.9584C17.3071 23.9584 15.2084 21.8596 15.2084 19.2709C15.2084 16.682 17.3071 14.5834 19.8959 14.5834C22.4847 14.5834 24.5834 16.682 24.5834 19.2709C24.5834 21.8596 22.4847 23.9584 19.8959 23.9584ZM20.8334 41.1417V34.1667C20.8334 33.1492 21.1338 32.214 21.6753 31.38C21.0599 31.2944 20.4309 31.25 19.7917 31.25C16.5251 31.25 13.5286 32.4067 11.1895 34.3327C13.4357 37.6502 16.8458 40.1152 20.8334 41.1417ZM9.27687 30.5417C12.2174 28.3684 15.8545 27.0834 19.7917 27.0834C21.9657 27.0834 24.0482 27.475 25.9724 28.1919C27.8015 27.4767 29.9843 27.0834 32.2918 27.0834C35.7495 27.0834 38.927 27.9665 41.0542 29.4923C41.4534 28.0631 41.6668 26.5565 41.6668 25C41.6668 15.7953 34.2049 8.33335 25.0001 8.33335C15.7953 8.33335 8.33342 15.7953 8.33342 25C8.33342 26.9427 8.66583 28.8079 9.27687 30.5417ZM39.3322 33.5123C38.513 32.4013 35.7726 31.25 32.2918 31.25C28.1124 31.25 25.0001 32.9098 25.0001 34.1667V41.6667C31.0949 41.6667 36.4257 38.395 39.3322 33.5123ZM25.0001 45.8334C13.4941 45.8334 4.16675 36.5059 4.16675 25C4.16675 13.4941 13.4941 4.16669 25.0001 4.16669C36.5059 4.16669 45.8334 13.4941 45.8334 25C45.8334 36.5059 36.5059 45.8334 25.0001 45.8334ZM32.2918 26.0417C29.9905 26.0417 28.1251 24.1763 28.1251 21.875C28.1251 19.5738 29.9905 17.7084 32.2918 17.7084C34.593 17.7084 36.4584 19.5738 36.4584 21.875C36.4584 24.1763 34.593 26.0417 32.2918 26.0417Z" fill="white"/>
</svg>
