<svg width="42" height="42" viewBox="0 0 42 42" fill="none" xmlns="http://www.w3.org/2000/svg">
<path d="M29.75 3.5V7H35.0115C35.9716 7 36.75 7.77866 36.75 8.73845V36.7616C36.75 37.7216 35.9714 38.5 35.0115 38.5H6.98845C6.02833 38.5 5.25 37.7214 5.25 36.7616V8.73845C5.25 7.77833 6.02866 7 6.98845 7H12.25V3.5H29.75ZM12.25 10.5H8.75V35H33.25V10.5H29.75V14H12.25V10.5ZM15.75 28V31.5H12.25V28H15.75ZM15.75 22.75V26.25H12.25V22.75H15.75ZM15.75 17.5V21H12.25V17.5H15.75ZM26.25 7H15.75V10.5H26.25V7Z" fill="#D49A06"/>
</svg>
