<svg width="40" height="40" viewBox="0 0 40 40" fill="none" xmlns="http://www.w3.org/2000/svg">
<path d="M15 1.66663V4.99996H25V1.66663H28.3333V4.99996H35C35.9205 4.99996 36.6667 5.74616 36.6667 6.66663V33.3333C36.6667 34.2538 35.9205 35 35 35H5C4.07953 35 3.33333 34.2538 3.33333 33.3333V6.66663C3.33333 5.74616 4.07953 4.99996 5 4.99996H11.6667V1.66663H15ZM33.3333 18.3333H6.66667V31.6666H33.3333V18.3333ZM13.3333 23.3333V26.6666H10V23.3333H13.3333ZM30 23.3333V26.6666H16.6667V23.3333H30ZM11.6667 8.33329H6.66667V15H33.3333V8.33329H28.3333V11.6666H25V8.33329H15V11.6666H11.6667V8.33329Z" fill="black"/>
</svg>
