<svg width="50" height="50" viewBox="0 0 50 50" fill="none" xmlns="http://www.w3.org/2000/svg">
<path d="M35.4167 6.25004H43.75C44.9006 6.25004 45.8333 7.18279 45.8333 8.33337V41.6667C45.8333 42.8173 44.9006 43.75 43.75 43.75H6.25001C5.09942 43.75 4.16667 42.8173 4.16667 41.6667V8.33337C4.16667 7.18279 5.09942 6.25004 6.25001 6.25004H14.5833V2.08337H18.75V6.25004H31.25V2.08337H35.4167V6.25004ZM8.33334 18.75V39.5834H41.6667V18.75H8.33334ZM12.5 22.9167H16.6667V27.0834H12.5V22.9167ZM12.5 31.25H16.6667V35.4167H12.5V31.25ZM20.8333 22.9167H37.5V27.0834H20.8333V22.9167ZM20.8333 31.25H31.25V35.4167H20.8333V31.25Z" fill="black"/>
</svg>
